<?xml version="1.0" encoding="UTF-8" standalone="no"?>
<!DOCTYPE svg PUBLIC "-//W3C//DTD SVG 1.1//EN"
 "http://www.w3.org/Graphics/SVG/1.1/DTD/svg11.dtd">
<!-- Generated by graphviz version 2.44.1 (20200629.0846)
 -->
<!-- Title: Hotel Cancellation Prediction Pages: 1 -->
<svg width="718pt" height="1691pt"
 viewBox="0.00 0.00 718.00 1690.88" xmlns="http://www.w3.org/2000/svg" xmlns:xlink="http://www.w3.org/1999/xlink">
<g id="graph0" class="graph" transform="scale(1 1) rotate(0) translate(144 1546.88)">
<title>Hotel Cancellation Prediction</title>
<polygon fill="white" stroke="transparent" points="-144,144 -144,-1546.88 574,-1546.88 574,144 -144,144"/>
<text text-anchor="middle" x="215" y="-1386.88" font-family="Sans-Serif" font-size="15.00" fill="#2d3436">Hotel Cancellation Prediction</text>
<g id="clust1" class="cluster">
<title>cluster_Goal</title>
<path fill="#e5f5fd" stroke="#aeb6be" d="M20,-1054.01C20,-1054.01 410,-1054.01 410,-1054.01 416,-1054.01 422,-1060.01 422,-1066.01 422,-1066.01 422,-1357.88 422,-1357.88 422,-1363.88 416,-1369.88 410,-1369.88 410,-1369.88 20,-1369.88 20,-1369.88 14,-1369.88 8,-1363.88 8,-1357.88 8,-1357.88 8,-1066.01 8,-1066.01 8,-1060.01 14,-1054.01 20,-1054.01"/>
<text text-anchor="middle" x="29" y="-1356.28" font-family="Sans-Serif" font-size="12.00" fill="#2d3436">Goal</text>
</g>
<g id="clust2" class="cluster">
<title>cluster_First OODA Loop</title>
<path fill="#e5f5fd" stroke="#aeb6be" d="M54,-365.72C54,-365.72 376,-365.72 376,-365.72 382,-365.72 388,-371.72 388,-377.72 388,-377.72 388,-1025.01 388,-1025.01 388,-1031.01 382,-1037.01 376,-1037.01 376,-1037.01 54,-1037.01 54,-1037.01 48,-1037.01 42,-1031.01 42,-1025.01 42,-1025.01 42,-377.72 42,-377.72 42,-371.72 48,-365.72 54,-365.72"/>
<text text-anchor="middle" x="95.5" y="-1023.41" font-family="Sans-Serif" font-size="12.00" fill="#2d3436">First OODA Loop</text>
</g>
<g id="clust3" class="cluster">
<title>cluster_Second OODA Loop</title>
<path fill="#e5f5fd" stroke="#aeb6be" d="M41,-8C41,-8 389,-8 389,-8 395,-8 401,-14 401,-20 401,-20 401,-336.72 401,-336.72 401,-342.72 395,-348.72 389,-348.72 389,-348.72 41,-348.72 41,-348.72 35,-348.72 29,-342.72 29,-336.72 29,-336.72 29,-20 29,-20 29,-14 35,-8 41,-8"/>
<text text-anchor="middle" x="91.5" y="-335.12" font-family="Sans-Serif" font-size="12.00" fill="#2d3436">Second OODA Loop</text>
</g>
<!-- edb7119e2ee84764bf0349869eb83b18 -->
<g id="node1" class="node">
<title>edb7119e2ee84764bf0349869eb83b18</title>
<defs>
<linearGradient id="l_0" gradientUnits="userSpaceOnUse" x1="350.19" y1="-1317.24" x2="79.81" y2="-1241.38" >
<stop offset="0" style="stop-color:#1e88a8;stop-opacity:1.;"/>
<stop offset="1" style="stop-color:#006284;stop-opacity:1.;"/>
</linearGradient>
</defs>
<polygon fill="url(#l_0)" stroke="#1e88a8" points="406.19,-1257.09 406.19,-1301.53 294.19,-1332.95 135.81,-1332.95 23.81,-1301.53 23.81,-1257.09 135.81,-1225.67 294.19,-1225.67 406.19,-1257.09"/>
<polygon fill="none" stroke="#1e88a8" points="410.19,-1254.05 410.19,-1304.57 294.74,-1336.96 135.26,-1336.96 19.81,-1304.57 19.81,-1254.05 135.26,-1221.66 294.74,-1221.66 410.19,-1254.05"/>
<polygon fill="none" stroke="#1e88a8" points="414.18,-1251.01 414.18,-1307.6 295.29,-1340.96 134.71,-1340.96 15.82,-1307.6 15.82,-1251.01 134.71,-1217.66 295.29,-1217.66 414.18,-1251.01"/>
<text text-anchor="middle" x="215" y="-1303.91" font-family="Meiryo UI" font-size="13.00" fill="white">[MajorPrerequisite]</text>
<text text-anchor="start" x="70.13" y="-1289.91" font-family="Meiryo UI" font-size="13.00" fill="white">Input data is the history of the</text>
<text text-anchor="start" x="70.13" y="-1275.91" font-family="Meiryo UI" font-size="13.00" fill="white">　reservation and cancellation data of xxx</text>
<text text-anchor="start" x="70.13" y="-1261.91" font-family="Meiryo UI" font-size="13.00" fill="white">　hotel group.</text>
<text text-anchor="start" x="70.13" y="-1247.91" font-family="Meiryo UI" font-size="13.00" fill="white">Dead line is 7/23/2021</text>
</g>
<!-- 7c0a9ae3ea4a4c55bc9933539286c22d -->
<g id="node2" class="node">
<title>7c0a9ae3ea4a4c55bc9933539286c22d</title>
<defs>
<linearGradient id="l_1" gradientUnits="userSpaceOnUse" x1="321.08" y1="-1143.1" x2="108.92" y2="-1082.65" >
<stop offset="0" style="stop-color:#354093;stop-opacity:1.;"/>
<stop offset="1" style="stop-color:#354093;stop-opacity:1.;"/>
</linearGradient>
</defs>
<polygon fill="url(#l_1)" stroke="#354093" points="365.02,-1095.17 365.02,-1130.58 277.14,-1155.62 152.86,-1155.62 64.98,-1130.58 64.98,-1095.17 152.86,-1070.13 277.14,-1070.13 365.02,-1095.17"/>
<polygon fill="none" stroke="#354093" points="369.02,-1092.16 369.02,-1133.59 277.7,-1159.6 152.3,-1159.6 60.98,-1133.59 60.98,-1092.16 152.3,-1066.14 277.7,-1066.14 369.02,-1092.16"/>
<polygon fill="none" stroke="#354093" points="373.02,-1089.15 373.02,-1136.6 278.26,-1163.59 151.74,-1163.59 56.98,-1136.6 56.98,-1089.15 151.74,-1062.15 278.26,-1062.15 373.02,-1089.15"/>
<text text-anchor="middle" x="215" y="-1130.47" font-family="Meiryo UI" font-size="13.00" fill="white">[Major Target]</text>
<text text-anchor="middle" x="215" y="-1116.47" font-family="Meiryo UI" font-size="13.00" fill="white">Binary classification prediction of</text>
<text text-anchor="middle" x="215" y="-1102.47" font-family="Meiryo UI" font-size="13.00" fill="white">reservations with high hotel</text>
<text text-anchor="middle" x="215" y="-1088.47" font-family="Meiryo UI" font-size="13.00" fill="white">cancellation probability.</text>
</g>
<!-- edb7119e2ee84764bf0349869eb83b18&#45;&gt;7c0a9ae3ea4a4c55bc9933539286c22d -->
<g id="edge1" class="edge">
<title>edb7119e2ee84764bf0349869eb83b18&#45;&gt;7c0a9ae3ea4a4c55bc9933539286c22d</title>
<path fill="none" stroke="#7b8894" d="M215,-1217.33C215,-1199.68 215,-1180.66 215,-1163.75"/>
</g>
<!-- 5eb50e6258af434e8998312c1213296c -->
<g id="node3" class="node">
<title>5eb50e6258af434e8998312c1213296c</title>
<defs>
<linearGradient id="l_2" gradientUnits="userSpaceOnUse" x1="329.19" y1="-994.69" x2="100.81" y2="-949.04" >
<stop offset="0" style="stop-color:#354093;stop-opacity:1.;"/>
<stop offset="1" style="stop-color:#354093;stop-opacity:1.;"/>
</linearGradient>
</defs>
<polygon fill="url(#l_2)" stroke="#354093" points="376.49,-958.5 376.49,-985.24 281.89,-1004.14 148.11,-1004.14 53.51,-985.24 53.51,-958.5 148.11,-939.59 281.89,-939.59 376.49,-958.5"/>
<polygon fill="none" stroke="#354093" points="380.48,-955.2 380.48,-988.53 282.28,-1008.16 147.72,-1008.16 49.52,-988.53 49.52,-955.2 147.72,-935.58 282.28,-935.58 380.48,-955.2"/>
<text text-anchor="middle" x="215" y="-982.47" font-family="Meiryo UI" font-size="13.00" fill="white">[Target]</text>
<text text-anchor="middle" x="215" y="-968.47" font-family="Meiryo UI" font-size="13.00" fill="white">Select the first and simple features,</text>
<text text-anchor="middle" x="215" y="-954.47" font-family="Meiryo UI" font-size="13.00" fill="white">and binary classify.</text>
</g>
<!-- 7c0a9ae3ea4a4c55bc9933539286c22d&#45;&gt;5eb50e6258af434e8998312c1213296c -->
<g id="edge2" class="edge">
<title>7c0a9ae3ea4a4c55bc9933539286c22d&#45;&gt;5eb50e6258af434e8998312c1213296c</title>
<path fill="none" stroke="#7b8894" d="M215,-1061.97C215,-1061.97 215,-1018.11 215,-1018.11"/>
<polygon fill="#7b8894" stroke="#7b8894" points="218.5,-1018.11 215,-1008.11 211.5,-1018.11 218.5,-1018.11"/>
</g>
<!-- eb6bfdb23ccb4485b7610402b5099cd3 -->
<g id="node4" class="node">
<title>eb6bfdb23ccb4485b7610402b5099cd3</title>
<defs>
<linearGradient id="l_3" gradientUnits="userSpaceOnUse" x1="278.99" y1="-856.76" x2="151.01" y2="-738.68" >
<stop offset="0" style="stop-color:#c2e6f9;stop-opacity:1.;"/>
<stop offset="1" style="stop-color:#c2e6f9;stop-opacity:1.;"/>
</linearGradient>
</defs>
<polygon fill="url(#l_3)" stroke="#383c3c" points="124.5,-714.22 124.5,-881.22 305.5,-881.22 305.5,-714.22 124.5,-714.22"/>
<polygon fill="none" stroke="#383c3c" points="125,-851.72 125,-880.72 226,-880.72 226,-851.72 125,-851.72"/>
<text text-anchor="start" x="155.5" y="-862.82" font-family="Meiryo UI" font-size="13.00" fill="#000b00">[ToDo]</text>
<polygon fill="none" stroke="#383c3c" points="226,-851.72 226,-880.72 306,-880.72 306,-851.72 226,-851.72"/>
<image xlink:href="/Users/hiro/Python/ooda_flow_diagram/src/ooda_flow_diagram/ooda/img/done.png" width="18.4783px" height="17px" preserveAspectRatio="xMinYMin meet" x="256.761" y="-874.721"/>
<polygon fill="none" stroke="#383c3c" points="125,-825.72 125,-851.72 306,-851.72 306,-825.72 125,-825.72"/>
<text text-anchor="start" x="131" y="-835.32" font-family="Meiryo UI" font-size="13.00" fill="#000b00">check all features&#39; histgrams</text>
<polygon fill="none" stroke="#383c3c" points="125,-779.72 125,-825.72 306,-825.72 306,-779.72 125,-779.72"/>
<text text-anchor="start" x="189.5" y="-807.32" font-family="Meiryo UI" font-size="13.00" fill="#000b00">[Output] </text>
<text text-anchor="start" x="133" y="-791.32" font-family="Meiryo UI" font-size="13.00" fill="#000b00">selected 8 features</text>
<polygon fill="none" stroke="#383c3c" points="125,-739.72 125,-779.72 306,-779.72 306,-739.72 125,-739.72"/>
<text text-anchor="start" x="131" y="-763.32" font-family="Meiryo UI" font-size="13.00" fill="#000b00">[ByWhen]: 6/23</text>
<text text-anchor="start" x="131" y="-749.32" font-family="Meiryo UI" font-size="13.00" fill="#000b00"> [Who]: James</text>
<polygon fill="none" stroke="#383c3c" points="125,-713.72 125,-739.72 306,-739.72 306,-713.72 125,-713.72"/>
<text text-anchor="start" x="131" y="-723.32" font-family="Meiryo UI" font-size="13.00" fill="#000b00">[DoneDate]: 6/22</text>
</g>
<!-- 5eb50e6258af434e8998312c1213296c&#45;&gt;eb6bfdb23ccb4485b7610402b5099cd3 -->
<g id="edge3" class="edge">
<title>5eb50e6258af434e8998312c1213296c&#45;&gt;eb6bfdb23ccb4485b7610402b5099cd3</title>
<path fill="none" stroke="#7b8894" d="M215,-935.36C215,-935.36 215,-891.53 215,-891.53"/>
<polygon fill="#7b8894" stroke="#7b8894" points="218.5,-891.53 215,-881.53 211.5,-891.53 218.5,-891.53"/>
</g>
<!-- e56ebad749b340baa14324c30826b496 -->
<g id="node5" class="node">
<title>e56ebad749b340baa14324c30826b496</title>
<defs>
<linearGradient id="l_4" gradientUnits="userSpaceOnUse" x1="297.02" y1="-632.71" x2="132.98" y2="-504.73" >
<stop offset="0" style="stop-color:#c2e6f9;stop-opacity:1.;"/>
<stop offset="1" style="stop-color:#c2e6f9;stop-opacity:1.;"/>
</linearGradient>
</defs>
<polygon fill="url(#l_4)" stroke="#383c3c" points="99,-478.22 99,-659.22 331,-659.22 331,-478.22 99,-478.22"/>
<polygon fill="none" stroke="#383c3c" points="99,-629.72 99,-658.72 226,-658.72 226,-629.72 99,-629.72"/>
<text text-anchor="start" x="142.5" y="-640.82" font-family="Meiryo UI" font-size="13.00" fill="#000b00">[ToDo]</text>
<polygon fill="none" stroke="#383c3c" points="226,-629.72 226,-658.72 331,-658.72 331,-629.72 226,-629.72"/>
<image xlink:href="/Users/hiro/Python/ooda_flow_diagram/src/ooda_flow_diagram/ooda/img/done.png" width="18.4783px" height="17px" preserveAspectRatio="xMinYMin meet" x="269.261" y="-652.721"/>
<polygon fill="none" stroke="#383c3c" points="99,-589.72 99,-629.72 331,-629.72 331,-589.72 99,-589.72"/>
<text text-anchor="start" x="105" y="-613.32" font-family="Meiryo UI" font-size="13.00" fill="#000b00">classify with boosting tree model and</text>
<text text-anchor="start" x="105" y="-599.32" font-family="Meiryo UI" font-size="13.00" fill="#000b00">get first accuracies</text>
<polygon fill="none" stroke="#383c3c" points="99,-543.72 99,-589.72 331,-589.72 331,-543.72 99,-543.72"/>
<text text-anchor="start" x="189" y="-571.32" font-family="Meiryo UI" font-size="13.00" fill="#000b00">[Output] </text>
<text text-anchor="start" x="107" y="-555.32" font-family="Meiryo UI" font-size="13.00" fill="#000b00">accuracies_01.xls</text>
<polygon fill="none" stroke="#383c3c" points="99,-503.72 99,-543.72 331,-543.72 331,-503.72 99,-503.72"/>
<text text-anchor="start" x="105" y="-527.32" font-family="Meiryo UI" font-size="13.00" fill="#000b00">[ByWhen]: 6/24</text>
<text text-anchor="start" x="105" y="-513.32" font-family="Meiryo UI" font-size="13.00" fill="#000b00"> [Who]: James</text>
<polygon fill="none" stroke="#383c3c" points="99,-477.72 99,-503.72 331,-503.72 331,-477.72 99,-477.72"/>
<text text-anchor="start" x="105" y="-487.32" font-family="Meiryo UI" font-size="13.00" fill="#000b00">[DoneDate]: 6/22</text>
</g>
<!-- eb6bfdb23ccb4485b7610402b5099cd3&#45;&gt;e56ebad749b340baa14324c30826b496 -->
<g id="edge4" class="edge">
<title>eb6bfdb23ccb4485b7610402b5099cd3&#45;&gt;e56ebad749b340baa14324c30826b496</title>
<path fill="none" stroke="#7b8894" d="M215,-714.07C215,-714.07 215,-669.48 215,-669.48"/>
<polygon fill="#7b8894" stroke="#7b8894" points="218.5,-669.48 215,-659.48 211.5,-669.48 218.5,-669.48"/>
</g>
<!-- 1177721da4324a8b819dec78dbee4490 -->
<g id="node6" class="node">
<title>1177721da4324a8b819dec78dbee4490</title>
<defs>
<linearGradient id="l_5" gradientUnits="userSpaceOnUse" x1="295.26" y1="-413.57" x2="134.74" y2="-383.87" >
<stop offset="0" style="stop-color:#3b74bf;stop-opacity:1.;"/>
<stop offset="1" style="stop-color:#3b74bf;stop-opacity:1.;"/>
</linearGradient>
</defs>
<path fill="url(#l_5)" stroke="#005caf" d="M316.5,-419.72C316.5,-419.72 113.5,-419.72 113.5,-419.72 107.5,-419.72 101.5,-413.72 101.5,-407.72 101.5,-407.72 101.5,-389.72 101.5,-389.72 101.5,-383.72 107.5,-377.72 113.5,-377.72 113.5,-377.72 316.5,-377.72 316.5,-377.72 322.5,-377.72 328.5,-383.72 328.5,-389.72 328.5,-389.72 328.5,-407.72 328.5,-407.72 328.5,-413.72 322.5,-419.72 316.5,-419.72"/>
<path fill="none" stroke="#005caf" d="M320.5,-423.72C320.5,-423.72 109.5,-423.72 109.5,-423.72 103.5,-423.72 97.5,-417.72 97.5,-411.72 97.5,-411.72 97.5,-385.72 97.5,-385.72 97.5,-379.72 103.5,-373.72 109.5,-373.72 109.5,-373.72 320.5,-373.72 320.5,-373.72 326.5,-373.72 332.5,-379.72 332.5,-385.72 332.5,-385.72 332.5,-411.72 332.5,-411.72 332.5,-417.72 326.5,-423.72 320.5,-423.72"/>
<text text-anchor="middle" x="215" y="-402.32" font-family="Meiryo UI" font-size="13.00" fill="white">First accuracy is accuracies_01.xls.</text>
<text text-anchor="middle" x="215" y="-388.32" font-family="Meiryo UI" font-size="13.00" fill="white">That is not enough.</text>
</g>
<!-- e56ebad749b340baa14324c30826b496&#45;&gt;1177721da4324a8b819dec78dbee4490 -->
<g id="edge5" class="edge">
<title>e56ebad749b340baa14324c30826b496&#45;&gt;1177721da4324a8b819dec78dbee4490</title>
<path fill="none" stroke="#7b8894" d="M215,-477.75C215,-477.75 215,-433.77 215,-433.77"/>
<polygon fill="#7b8894" stroke="#7b8894" points="218.5,-433.77 215,-423.77 211.5,-433.77 218.5,-433.77"/>
</g>
<!-- b1ec7dafd1594fd28ac9af7f6ef4ebc4 -->
<g id="node7" class="node">
<title>b1ec7dafd1594fd28ac9af7f6ef4ebc4</title>
<defs>
<linearGradient id="l_6" gradientUnits="userSpaceOnUse" x1="338.02" y1="-303.08" x2="91.98" y2="-242.64" >
<stop offset="0" style="stop-color:#354093;stop-opacity:1.;"/>
<stop offset="1" style="stop-color:#354093;stop-opacity:1.;"/>
</linearGradient>
</defs>
<polygon fill="url(#l_6)" stroke="#354093" points="388.97,-255.16 388.97,-290.56 287.06,-315.59 142.94,-315.59 41.03,-290.56 41.03,-255.16 142.94,-230.13 287.06,-230.13 388.97,-255.16"/>
<polygon fill="none" stroke="#354093" points="392.98,-252.04 392.98,-293.69 287.55,-319.58 142.45,-319.58 37.02,-293.69 37.02,-252.04 142.45,-226.14 287.55,-226.14 392.98,-252.04"/>
<text text-anchor="middle" x="215" y="-290.46" font-family="Meiryo UI" font-size="13.00" fill="white">[Target]</text>
<text text-anchor="middle" x="215" y="-276.46" font-family="Meiryo UI" font-size="13.00" fill="white">Merge past reservation information for</text>
<text text-anchor="middle" x="215" y="-262.46" font-family="Meiryo UI" font-size="13.00" fill="white">each user and add user attribute</text>
<text text-anchor="middle" x="215" y="-248.46" font-family="Meiryo UI" font-size="13.00" fill="white">information to the features</text>
</g>
<!-- 1177721da4324a8b819dec78dbee4490&#45;&gt;b1ec7dafd1594fd28ac9af7f6ef4ebc4 -->
<g id="edge6" class="edge">
<title>1177721da4324a8b819dec78dbee4490&#45;&gt;b1ec7dafd1594fd28ac9af7f6ef4ebc4</title>
<path fill="none" stroke="#7b8894" d="M215,-373.55C215,-373.55 215,-329.63 215,-329.63"/>
<polygon fill="#7b8894" stroke="#7b8894" points="218.5,-329.63 215,-319.63 211.5,-329.63 218.5,-329.63"/>
</g>
<!-- febb97f19d764d8483aec16e039eac9c -->
<g id="node8" class="node">
<title>febb97f19d764d8483aec16e039eac9c</title>
<defs>
<linearGradient id="l_7" gradientUnits="userSpaceOnUse" x1="304.1" y1="-148.8" x2="125.9" y2="-39.2" >
<stop offset="0" style="stop-color:#c2e6f9;stop-opacity:1.;"/>
<stop offset="1" style="stop-color:#c2e6f9;stop-opacity:1.;"/>
</linearGradient>
</defs>
<polygon fill="url(#l_7)" stroke="#383c3c" points="89,-16.5 89,-171.5 341,-171.5 341,-16.5 89,-16.5"/>
<polygon fill="none" stroke="#383c3c" points="89,-142 89,-171 226,-171 226,-142 89,-142"/>
<text text-anchor="start" x="137.5" y="-153.1" font-family="Meiryo UI" font-size="13.00" fill="#000b00">[ToDo]</text>
<polygon fill="none" stroke="#383c3c" points="226,-142 226,-171 341,-171 341,-142 226,-142"/>
<image xlink:href="/Users/hiro/Python/ooda_flow_diagram/src/ooda_flow_diagram/ooda/img/start.png" width="18.4783px" height="17px" preserveAspectRatio="xMinYMin meet" x="274.261" y="-165"/>
<polygon fill="none" stroke="#383c3c" points="89,-102 89,-142 341,-142 341,-102 89,-102"/>
<text text-anchor="start" x="95" y="-125.6" font-family="Meiryo UI" font-size="13.00" fill="#000b00">・Merge past reservation information for</text>
<text text-anchor="start" x="95" y="-111.6" font-family="Meiryo UI" font-size="13.00" fill="#000b00">　each user</text>
<polygon fill="none" stroke="#383c3c" points="89,-56 89,-102 341,-102 341,-56 89,-56"/>
<text text-anchor="start" x="189" y="-83.6" font-family="Meiryo UI" font-size="13.00" fill="#000b00">[Output] </text>
<text text-anchor="start" x="97" y="-67.6" font-family="Meiryo UI" font-size="13.00" fill="#000b00">1. data preparation program</text>
<polygon fill="none" stroke="#383c3c" points="89,-16 89,-56 341,-56 341,-16 89,-16"/>
<text text-anchor="start" x="95" y="-39.6" font-family="Meiryo UI" font-size="13.00" fill="#000b00">[ByWhen]: 6/28</text>
<text text-anchor="start" x="95" y="-25.6" font-family="Meiryo UI" font-size="13.00" fill="#000b00"> [Who]: Bell</text>
</g>
<!-- b1ec7dafd1594fd28ac9af7f6ef4ebc4&#45;&gt;febb97f19d764d8483aec16e039eac9c -->
<g id="edge7" class="edge">
<title>b1ec7dafd1594fd28ac9af7f6ef4ebc4&#45;&gt;febb97f19d764d8483aec16e039eac9c</title>
<path fill="none" stroke="#7b8894" d="M215,-225.87C215,-225.87 215,-181.8 215,-181.8"/>
<polygon fill="#7b8894" stroke="#7b8894" points="218.5,-181.8 215,-171.8 211.5,-181.8 218.5,-181.8"/>
</g>
</g>
</svg>
